name Walk3.mot
datacolumns 19
datarows 17
range 2.45500000 2.53500000
endheader

                time	   L_ground_force_vx	   L_ground_force_vy	   L_ground_force_vz	   L_ground_force_px	   L_ground_force_py	   L_ground_force_pz	   R_ground_force_vx	   R_ground_force_vy	   R_ground_force_vz	   R_ground_force_px	   R_ground_force_py	   R_ground_force_pz	   L_ground_torque_x	   L_ground_torque_y	   L_ground_torque_z	   R_ground_torque_x	   R_ground_torque_y	   R_ground_torque_z	
          2.45500000	         36.10280363	       1005.94686202	         66.25264445	         -0.28921281	          0.00000000	         -0.05216666	         -0.04186126	          0.50805095	          0.05903678	          0.00024556	          0.00000000	          0.00012436	          0.00000000	         -1.73886607	          0.00000000	          0.00000000	          0.00287876	          0.00000000	
          2.46000000	         37.57454628	       1011.67466145	         66.87612356	         -0.28698064	          0.00000000	         -0.05197924	         -0.05530023	          0.62904355	          0.07127865	          0.00027935	          0.00000000	          0.00014018	          0.00000000	         -1.65679239	          0.00000000	          0.00000000	          0.00426132	          0.00000000	
          2.46500000	         39.33000338	       1017.96883123	         67.48199199	         -0.28489281	          0.00000000	         -0.05175536	         -0.06943662	          0.74013821	          0.08157770	          0.00029758	          0.00000000	          0.00014757	          0.00000000	         -1.57480792	          0.00000000	          0.00000000	          0.00589171	          0.00000000	
          2.47000000	         41.39333185	       1024.72908924	         68.00952468	         -0.28295568	          0.00000000	         -0.05149100	         -0.08291713	          0.82209716	          0.08757701	          0.00028931	          0.00000000	          0.00014089	          0.00000000	         -1.49869788	          0.00000000	          0.00000000	          0.00770750	          0.00000000	
          2.47500000	         43.77944749	       1031.85065247	         68.38705996	         -0.28117280	          0.00000000	         -0.05118344	         -0.09371235	          0.84851461	          0.08613152	          0.00024074	          0.00000000	          0.00011310	          0.00000000	         -1.43616339	          0.00000000	          0.00000000	          0.00958846	          0.00000000	
          2.48000000	         46.49413161	       1039.22656261	         68.53819219	         -0.27954447	          0.00000000	         -0.05083217	         -0.09898884	          0.78506377	          0.07325500	          0.00013531	          0.00000000	          0.00005582	          0.00000000	         -1.39634190	          0.00000000	          0.00000000	          0.01133905	          0.00000000	
          2.48500000	         49.53186479	       1046.75122601	         68.39745714	         -0.27806758	          0.00000000	         -0.05043928	         -0.09500878	          0.58929941	          0.04414123	         -0.00004579	          0.00000000	         -0.00004039	          0.00000000	         -1.38820421	          0.00000000	          0.00000000	          0.01267047	          0.00000000	
          2.49000000	         52.87717490	       1054.32568216	         67.93450463	         -0.27673584	          0.00000000	         -0.05000959	         -0.07708512	          0.21135128	         -0.00670205	         -0.00032254	          0.00000000	         -0.00018544	          0.00000000	         -1.41733055	          0.00000000	          0.00000000	          0.01318403	          0.00000000	
          2.49500000	         56.51747166	       1061.85576220	         67.15823733	         -0.27553997	          0.00000000	         -0.04954972	         -0.03962855	         -0.40407892	         -0.08515948	         -0.00071432	          0.00000000	         -0.00038875	          0.00000000	         -1.48369976	          0.00000000	          0.00000000	          0.01235890	          0.00000000	
          2.50000000	         60.44503678	       1069.24915420	         66.10790186	         -0.27446859	          0.00000000	         -0.04906684	          0.02366776	         -1.31393401	         -0.19700184	         -0.00123716	          0.00000000	         -0.00065785	          0.00000000	         -1.58247510	          0.00000000	          0.00000000	          0.00954802	          0.00000000	
          2.50500000	         64.64816092	       1076.41756208	         64.84596819	         -0.27350768	          0.00000000	         -0.04856808	          0.11945186	         -2.57069862	         -0.34711070	         -0.00189989	          0.00000000	         -0.00099635	          0.00000000	         -1.70512930	          0.00000000	          0.00000000	          0.00398725	          0.00000000	
          2.51000000	         69.10387685	       1083.27955499	         63.44973013	         -0.27264135	          0.00000000	         -0.04806104	          0.25408386	         -4.21343252	         -0.53837890	         -0.00269903	          0.00000000	         -0.00140131	          0.00000000	         -1.84064444	          0.00000000	          0.00000000	         -0.00517584	          0.00000000	
          2.51500000	         73.77876858	       1089.75832251	         62.00254401	         -0.27185426	          0.00000000	         -0.04755380	          0.43269060	         -6.25544390	         -0.77024143	         -0.00361232	          0.00000000	         -0.00185999	          0.00000000	         -1.97709552	          0.00000000	          0.00000000	         -0.01882626	          0.00000000	
          2.52000000	         78.63570745	       1095.77361455	         60.58639035	         -0.27113232	          0.00000000	         -0.04705435	          0.65784342	         -8.66824311	         -1.03681075	         -0.00459099	          0.00000000	         -0.00234585	          0.00000000	         -2.10272809	          0.00000000	          0.00000000	         -0.03779063	          0.00000000	
          2.52500000	         83.63890446	       1101.23465190	         59.27565482	         -0.27046313	          0.00000000	         -0.04656981	          0.92781160	        -11.36167548	         -1.32462566	         -0.00555090	          0.00000000	         -0.00281419	          0.00000000	         -2.20719332	          0.00000000	          0.00000000	         -0.06270265	          0.00000000	
          2.53000000	         88.75439413	       1106.04101930	         58.13286499	         -0.26983583	          0.00000000	         -0.04610502	          1.23436928	        -14.16054563	         -1.61007485	         -0.00636319	          0.00000000	         -0.00319743	          0.00000000	         -2.28283831	          0.00000000	          0.00000000	         -0.09381694	          0.00000000	
          2.53500000	         93.94803870	       1110.08202396	         57.20497335	         -0.26924009	          0.00000000	         -0.04566328	          1.56017671	        -16.77865405	         -1.85663109	         -0.00684510	          0.00000000	         -0.00340071	          0.00000000	         -2.32483644	          0.00000000	          0.00000000	         -0.13076568	          0.00000000	
